<svg xmlns="http://www.w3.org/2000/svg" viewBox="0 0 62.19 70.27"><defs><style>.cls-1{fill:#ed6946;}.cls-2{fill:#fff;stroke:#b7b7b7;stroke-miterlimit:10;stroke-width:0.25px;}.cls-3{fill:#fbc40c;}.cls-4{fill:#ecb109;}.cls-5{fill:#11ad87;}</style></defs><title>Asset 1</title><g id="Layer_2" data-name="Layer 2"><g id="Layer_1-2" data-name="Layer 1"><polygon class="cls-1" points="31.1 0 46.63 13.44 62.16 26.87 31.1 26.87 0.03 26.87 15.57 13.44 31.1 0"/><path class="cls-1" d="M55.49,21l6.71,6V66.24a4,4,0,0,1-4,4H4a4,4,0,0,1-4-4V26.95l6.71-5.41"/><path class="cls-1" d="M55.49,21l6.71,6V66.24a4,4,0,0,1-4,4H4a4,4,0,0,1-4-4V26.95l6.71-5.41"/><polyline class="cls-2" points="7.08 51.64 7.08 8.31 55.12 8.31 55.12 51.64"/><path class="cls-3" d="M23.73,46.83.27,67.67A4,4,0,0,0,4,70.27H58.15a4,4,0,0,0,3.77-2.61L38.47,46.83Z"/><path class="cls-4" d="M38.59,46.93,61.92,67.67a4.23,4.23,0,0,1-.28.58h0a4,4,0,0,0,.54-2V27Z"/><path class="cls-4" d="M.27,67.67,23.61,46.93,0,27V66.24a4,4,0,0,0,.54,2h0A3.93,3.93,0,0,1,.27,67.67Z"/><polygon class="cls-5" points="16.72 30.51 20.21 26.97 26.18 32.96 44.04 15.11 47.55 18.6 26.18 39.97 16.72 30.51"/><path class="cls-5" d="M44,15.64l3,3L26.19,39.43l-8.94-8.93,3-3,6,6L44,15.64m0-1.06-.53.53L26.18,32.43,20.75,27l-.53-.54-.53.54-3,3-.52.53.53.53L25.66,40l.53.53.53-.53L47.55,19.13l.53-.53-.53-.53-3-3L44,14.58Z"/></g></g></svg>